<svg width="159" height="60" viewBox="0 0 159 60" fill="none" xmlns="http://www.w3.org/2000/svg">
<mask id="mask0_30_336" style="mask-type:alpha" maskUnits="userSpaceOnUse" x="0" y="0" width="159" height="60">
<rect width="159" height="59.6807" rx="20" fill="#D9D9D9"/>
</mask>
<g mask="url(#mask0_30_336)">
<rect y="-7.57141" width="178.151" height="70.8151" fill="#181818"/>
<path d="M58.6581 13.2272L64.986 12.9707C66.7248 12.9707 68.435 13.5123 70.1168 14.5954C70.9719 15.1655 71.6702 15.9779 72.2118 17.0325C72.7819 18.0872 73.067 19.2986 73.067 20.6668C73.067 23.0612 72.3686 25.028 70.9719 26.5672C69.5752 28.0779 67.9219 29.1611 66.0122 29.8167C66.8388 30.2727 67.6511 30.8143 68.4493 31.4414C70.6156 33.2657 72.1976 35.0044 73.1952 36.6577C74.2214 38.3109 74.7344 39.7789 74.7344 41.0616C74.7344 42.3443 74.1359 42.9856 72.9387 42.9856C72.055 42.9856 71.2284 42.1162 70.4588 40.3775C70.1453 39.6364 69.6037 38.6672 68.8341 37.47C68.093 36.2444 67.2378 35.1042 66.2687 34.0495C64.2449 31.8832 62.1641 30.4152 60.0263 29.6456C60.0548 31.9545 60.126 34.2776 60.2401 36.6149C60.3541 38.9523 60.4111 40.3775 60.4111 40.8905C60.4111 41.3751 60.2116 41.8454 59.8125 42.3015C59.4419 42.7576 58.9574 42.9856 58.3588 42.9856C57.7602 42.9856 57.2614 42.7576 56.8623 42.3015C56.4918 41.8454 56.3065 41.3894 56.3065 40.9333C56.3065 40.4772 56.3635 38.8952 56.4775 36.1873C56.62 33.4794 56.6913 30.8571 56.6913 28.3202C56.6913 25.7833 56.6628 23.7025 56.6058 22.0778C56.5488 20.4245 56.4775 19.0991 56.392 18.1014C56.335 17.1038 56.3065 16.4624 56.3065 16.1774H55.5369C55.0808 16.1774 54.6675 16.0349 54.2969 15.7498C53.9549 15.4363 53.7839 15.0515 53.7839 14.5954C53.7839 14.1108 53.9549 13.726 54.2969 13.441C54.6675 13.1274 55.0238 12.9707 55.3658 12.9707C55.7364 12.9707 56.221 13.0134 56.8196 13.0989C57.4466 13.1845 58.0595 13.2272 58.6581 13.2272ZM62.8909 15.9209L60.4111 15.9636C60.4111 16.2772 60.3683 16.9043 60.2828 17.8449C60.1118 20.3533 60.0263 23.503 60.0263 27.294C61.4515 27.6931 62.4919 27.8926 63.1475 27.8926C63.8031 27.8926 64.4587 27.8214 65.1143 27.6788C65.7984 27.5078 66.5252 27.237 67.2948 26.8665C68.093 26.4959 68.7486 25.9116 69.2616 25.1135C69.7747 24.2868 70.0313 23.332 70.0313 22.2488C70.0313 20.0825 69.3329 18.4862 67.9362 17.4601C66.568 16.4339 64.8862 15.9209 62.8909 15.9209Z" fill="white"/>
<path d="M18.6881 28.5185C17.4339 29.7727 16.8068 31.3119 16.8068 33.1362C16.8068 34.9605 17.4339 36.5139 18.6881 37.7966C19.9707 39.0508 21.51 39.6779 23.3057 39.6779C25.13 39.6779 26.655 39.0508 27.8807 37.7966C29.1063 36.5139 29.7192 34.9605 29.7192 33.1362C29.7192 31.3119 29.1063 29.7727 27.8807 28.5185C26.655 27.2643 25.13 26.6372 23.3057 26.6372C21.51 26.6372 19.9707 27.2643 18.6881 28.5185ZM20.3983 43.0129C18.574 43.0129 17.0491 42.3003 15.8234 40.8751C14.5977 39.4499 13.9849 37.6684 13.9849 35.5305C13.9849 33.3642 14.6547 31.2834 15.9944 29.2881C17.3341 27.2643 18.9018 25.7536 20.6976 24.7559C22.4934 23.7583 24.3034 23.2595 26.1277 23.2595C27.9519 23.2595 29.4769 23.9721 30.7026 25.3973C31.9283 26.8225 32.5411 28.6183 32.5411 30.7846C32.5411 32.9224 31.8713 35.0032 30.5316 37.027C29.1919 39.0223 27.6241 40.5188 25.8284 41.5164C24.0326 42.5141 22.2226 43.0129 20.3983 43.0129Z" fill="white"/>
<path d="M48.548 35.445L48.1204 25.8249C48.1204 25.0552 48.3057 24.4424 48.6763 23.9863C49.0753 23.5018 49.5456 23.2595 50.0872 23.2595C50.6288 23.2595 51.0706 23.4875 51.4127 23.9436C51.7547 24.3711 51.9257 24.9697 51.9257 25.7393C51.9257 26.4805 51.8402 27.5351 51.6692 28.9033C51.3271 31.6397 51.1561 34.0911 51.1561 36.2574C51.1561 37.1125 51.4269 37.9391 51.9685 38.7373C52.5386 39.5069 52.8236 40.2052 52.8236 40.8323C52.8236 41.4594 52.6098 41.9867 52.1823 42.4143C51.7547 42.8134 51.2701 43.0129 50.7286 43.0129C49.3034 43.0129 48.5907 41.887 48.5907 39.6351C47.251 41.887 45.5693 43.0129 43.5455 43.0129C41.9208 43.0129 40.6238 42.4286 39.6547 41.2599C38.714 40.0912 38.0584 38.666 37.6879 36.9843L36.0631 29.6302C35.8921 28.8035 35.5073 28.0767 34.9087 27.4496C34.3386 26.794 34.0536 26.1384 34.0536 25.4828C34.0536 24.8272 34.2816 24.2999 34.7377 23.9008C35.1938 23.4733 35.7353 23.2595 36.3624 23.2595C37.7877 23.2595 38.714 24.3854 39.1416 26.6372L40.7663 35.5733C41.3079 38.4237 42.6619 39.8489 44.8282 39.8489C45.8828 39.8489 46.7522 39.4356 47.4363 38.609C48.1204 37.7539 48.491 36.6992 48.548 35.445Z" fill="white"/>
<path d="M110.233 35.445L109.805 25.8249C109.805 25.0552 109.991 24.4424 110.361 23.9863C110.76 23.5018 111.231 23.2595 111.772 23.2595C112.314 23.2595 112.755 23.4875 113.098 23.9436C113.44 24.3711 113.611 24.9697 113.611 25.7393C113.611 26.4805 113.525 27.5351 113.354 28.9033C113.012 31.6397 112.841 34.0911 112.841 36.2574C112.841 37.1125 113.112 37.9391 113.653 38.7373C114.223 39.5069 114.508 40.2052 114.508 40.8323C114.508 41.4594 114.295 41.9867 113.867 42.4143C113.44 42.8134 112.955 43.0129 112.413 43.0129C110.988 43.0129 110.276 41.887 110.276 39.6351C108.936 41.887 107.254 43.0129 105.23 43.0129C103.606 43.0129 102.309 42.4286 101.34 41.2599C100.399 40.0912 99.7433 38.666 99.3728 36.9843L97.748 29.6302C97.577 28.8035 97.1922 28.0767 96.5936 27.4496C96.0235 26.794 95.7385 26.1384 95.7385 25.4828C95.7385 24.8272 95.9665 24.2999 96.4226 23.9008C96.8786 23.4733 97.4202 23.2595 98.0473 23.2595C99.4725 23.2595 100.399 24.3854 100.826 26.6372L102.451 35.5733C102.993 38.4237 104.347 39.8489 106.513 39.8489C107.568 39.8489 108.437 39.4356 109.121 38.609C109.805 37.7539 110.176 36.6992 110.233 35.445Z" fill="white"/>
<path d="M119.897 39.6351C119.897 36.0436 119.826 32.8939 119.683 30.186C119.54 27.4781 119.469 25.8819 119.469 25.3973C119.469 24.9127 119.655 24.4424 120.025 23.9863C120.424 23.5018 120.894 23.2595 121.436 23.2595C121.978 23.2595 122.419 23.4875 122.761 23.9436C123.104 24.3711 123.275 25.0125 123.275 25.8676C123.275 26.6942 123.175 28.1052 122.975 30.1005C122.776 32.0673 122.676 34.1196 122.676 36.2574C122.676 37.1125 122.847 37.9391 123.189 38.7373C123.56 39.5069 123.745 40.2195 123.745 40.8751C123.745 41.5022 123.56 42.0152 123.189 42.4143C122.847 42.8134 122.362 43.0129 121.735 43.0129C121.137 43.0129 120.681 42.6708 120.367 41.9867C120.054 41.3026 119.897 40.5188 119.897 39.6351ZM121.265 18.428C120.638 18.428 120.139 18.257 119.769 17.9149C119.398 17.5729 119.213 17.0741 119.213 16.4185C119.213 15.7629 119.441 15.207 119.897 14.751C120.353 14.2664 120.894 14.0241 121.522 14.0241C122.149 14.0241 122.647 14.2094 123.018 14.5799C123.417 14.922 123.617 15.4208 123.617 16.0764C123.617 16.732 123.374 17.2878 122.89 17.7439C122.434 18.2 121.892 18.428 121.265 18.428Z" fill="white"/>
<path d="M136.495 26.2097L131.193 26.4662C130.737 26.4662 130.338 26.3379 129.996 26.0814C129.683 25.7964 129.526 25.3973 129.526 24.8842C129.526 24.3711 129.697 23.9721 130.039 23.687C130.381 23.402 130.766 23.2595 131.193 23.2595L136.495 23.516L142.353 23.2595C143.465 23.2595 144.02 23.8011 144.02 24.8842C144.02 25.8249 143.564 26.794 142.652 27.7916C137.493 33.3785 134.657 36.5424 134.144 37.2835C133.631 37.9962 133.374 38.4807 133.374 38.7373C133.374 39.6779 134.685 40.1482 137.308 40.1482C139.103 40.1482 140.771 39.6779 142.31 38.7373C142.823 38.4237 143.236 38.2669 143.55 38.2669C144.092 38.2669 144.362 38.495 144.362 38.951C144.362 39.6922 143.408 40.5615 141.498 41.5592C139.588 42.5283 137.635 43.0129 135.64 43.0129C133.673 43.0129 132.106 42.6423 130.937 41.9012C129.768 41.1601 129.184 40.419 129.184 39.6779C129.184 38.9083 129.583 38.0247 130.381 37.027C130.609 36.742 131.963 35.1885 134.443 32.3666C136.951 29.5447 138.704 27.5494 139.702 26.3807C138.277 26.2667 137.208 26.2097 136.495 26.2097Z" fill="white"/>
<path d="M89.9217 37.6095L89.9369 37.6157L89.9525 37.6209C90.4798 37.7959 91.0047 37.7255 91.4917 37.4444C91.9959 37.1533 92.3423 36.7309 92.457 36.1763C92.5798 35.5961 92.4561 35.0221 92.1409 34.4762C91.5533 33.4584 91.2982 32.4322 91.3567 31.3882C91.4311 30.2379 91.7044 28.767 92.1867 26.9669L92.1867 26.9669L92.1881 26.9617C92.7359 24.8258 93.0479 23.0202 93.1139 21.5535L93.1139 21.5535L93.1141 21.5473C93.1649 19.9894 92.7234 18.4252 91.8212 16.8626C90.8851 15.2413 89.6533 13.9411 88.1273 12.9705C86.5765 11.9658 84.856 11.4414 82.9768 11.3974C81.1064 11.3362 79.2279 11.8634 77.3489 12.9483C74.537 14.5717 72.691 16.6258 71.8905 19.1278C71.0704 21.6096 71.4271 24.1432 72.8992 26.6929C73.539 27.8011 74.3999 28.6861 75.4782 29.3407C76.5478 29.99 77.6875 30.3619 78.8924 30.4496L78.9025 30.4503L78.9127 30.4506C80.1399 30.4898 81.2889 30.2023 82.3491 29.5902C82.843 29.3051 83.2222 28.9332 83.4198 28.4561C83.6596 27.933 83.6169 27.394 83.3275 26.8928C83.021 26.3618 82.6079 25.9643 82.0615 25.8269C81.5189 25.6904 80.9595 25.8395 80.4208 26.1505C79.6817 26.5772 78.9477 26.6505 78.181 26.3869C77.3957 26.0676 76.775 25.52 76.3139 24.7214C75.33 23.0171 75.114 21.5377 75.5476 20.2393L75.5479 20.2385C75.9967 18.8868 77.2352 17.567 79.4068 16.3132C81.1208 15.3236 82.7838 15.0833 84.4253 15.5454C86.0695 16.0084 87.3972 17.0862 88.4064 18.8342C88.9736 19.8166 89.2084 20.8327 89.1232 21.8941L89.123 21.8941L89.1224 21.906C89.0602 23.0069 88.798 24.3924 88.3241 26.0711L88.3221 26.0782L88.3204 26.0852C87.9578 27.5295 87.6918 28.751 87.5241 29.747L87.5237 29.7493C87.362 30.7375 87.3578 31.8075 87.5038 32.9558C87.6543 34.1387 88.0654 35.3033 88.7262 36.4477C89.0383 36.9884 89.4278 37.4087 89.9217 37.6095ZM93.3548 45.0699C94.2121 45.2996 95.043 45.1859 95.8181 44.7384C96.5686 44.3051 97.0538 43.6544 97.2524 42.813C97.4794 41.9585 97.3651 41.1303 96.9189 40.3575C96.4986 39.6295 95.8527 39.1633 95.0185 38.9664C94.1773 38.7428 93.3763 38.8304 92.6494 39.25C91.8983 39.6837 91.3926 40.3457 91.1348 41.203C90.8857 42.0263 90.9659 42.8211 91.3873 43.5512C91.8349 44.3263 92.4976 44.8401 93.3548 45.0699Z" fill="#4E36A6" stroke="white"/>
<rect x="0.5" y="0.5" width="158" height="58.6807" rx="9.5" stroke="white"/>
</g>
</svg>
