<svg width="60" height="60" viewBox="0 0 60 60" fill="none" xmlns="http://www.w3.org/2000/svg">
<mask id="mask0_33_710" style="mask-type:alpha" maskUnits="userSpaceOnUse" x="0" y="0" width="60" height="60">
<rect width="60" height="60" rx="20" fill="#D9D9D9"/>
</mask>
<g mask="url(#mask0_33_710)">
<rect y="-0.399994" width="60" height="60" fill="#181818"/>
<path d="M15.8816 15.904L21.5648 15.6736C23.1264 15.6736 24.6624 16.16 26.1728 17.1328C26.9408 17.6448 27.568 18.3744 28.0544 19.3216C28.5664 20.2688 28.8224 21.3568 28.8224 22.5856C28.8224 24.736 28.1952 26.5024 26.9408 27.8848C25.6864 29.2416 24.2016 30.2144 22.4864 30.8032C23.2288 31.2128 23.9584 31.6992 24.6752 32.2624C26.6208 33.9008 28.0416 35.4624 28.9376 36.9472C29.8592 38.432 30.32 39.7504 30.32 40.9024C30.32 42.0544 29.7824 42.6304 28.7072 42.6304C27.9136 42.6304 27.1712 41.8496 26.48 40.288C26.1984 39.6224 25.712 38.752 25.0208 37.6768C24.3552 36.576 23.5872 35.552 22.7168 34.6048C20.8992 32.6592 19.0304 31.3408 17.1104 30.6496C17.136 32.7232 17.2 34.8096 17.3024 36.9088C17.4048 39.008 17.456 40.288 17.456 40.7488C17.456 41.184 17.2768 41.6064 16.9184 42.016C16.5856 42.4256 16.1504 42.6304 15.6128 42.6304C15.0752 42.6304 14.6272 42.4256 14.2688 42.016C13.936 41.6064 13.7696 41.1968 13.7696 40.7872C13.7696 40.3776 13.8208 38.9568 13.9232 36.5248C14.0512 34.0928 14.1152 31.7376 14.1152 29.4592C14.1152 27.1808 14.0896 25.312 14.0384 23.8528C13.9872 22.368 13.9232 21.1776 13.8464 20.2816C13.7952 19.3856 13.7696 18.8096 13.7696 18.5536H13.0784C12.6688 18.5536 12.2976 18.4256 11.9648 18.1696C11.6576 17.888 11.504 17.5424 11.504 17.1328C11.504 16.6976 11.6576 16.352 11.9648 16.096C12.2976 15.8144 12.6176 15.6736 12.9248 15.6736C13.2576 15.6736 13.6928 15.712 14.2304 15.7888C14.7936 15.8656 15.344 15.904 15.8816 15.904ZM19.6832 18.3232L17.456 18.3616C17.456 18.6432 17.4176 19.2064 17.3408 20.0512C17.1872 22.304 17.1104 25.1328 17.1104 28.5376C18.3904 28.896 19.3248 29.0752 19.9136 29.0752C20.5024 29.0752 21.0912 29.0112 21.68 28.8832C22.2944 28.7296 22.9472 28.4864 23.6384 28.1536C24.3552 27.8208 24.944 27.296 25.4048 26.5792C25.8656 25.8368 26.096 24.9792 26.096 24.0064C26.096 22.0608 25.4688 20.6272 24.2144 19.7056C22.9856 18.784 21.4752 18.3232 19.6832 18.3232Z" fill="white"/>
<path d="M43.9408 37.8493L43.9559 37.8554L43.9715 37.8606C44.4601 38.0228 44.9466 37.957 45.3954 37.6979C45.8586 37.4305 46.1803 37.0399 46.2868 36.5253C46.4001 35.9898 46.2853 35.4615 45.9972 34.9625C45.4739 34.0562 45.2477 33.1444 45.2996 32.2178C45.3661 31.1893 45.6106 29.8719 46.0434 28.257L46.0434 28.257L46.0447 28.2518C46.5372 26.3317 46.8183 24.7064 46.8777 23.3842L46.8778 23.3842L46.878 23.3781C46.9239 21.9677 46.5241 20.5536 45.71 19.1436C44.8654 17.6807 43.7536 16.5069 42.3759 15.6306C40.9751 14.7231 39.4208 14.2495 37.724 14.2097C36.0331 14.1544 34.3368 14.6313 32.6426 15.6094C30.1096 17.0718 28.4413 18.9255 27.7174 21.1877C26.9757 23.4325 27.2996 25.7229 28.6276 28.0232C29.2065 29.0258 29.9857 29.8269 30.9615 30.4193C31.9288 31.0064 32.9601 31.3431 34.0506 31.4225L34.0608 31.4232L34.071 31.4235C35.1826 31.459 36.2239 31.1985 37.1844 30.6439C37.6343 30.3842 37.9841 30.0429 38.1671 29.6017C38.3895 29.116 38.3491 28.6149 38.0817 28.1518C37.8023 27.6678 37.4217 27.2985 36.913 27.1705C36.4082 27.0436 35.8918 27.1834 35.4016 27.4664C34.7505 27.8423 34.107 27.9064 33.4333 27.6752C32.7398 27.3928 32.1913 26.9092 31.7827 26.2016C30.9038 24.6793 30.7153 23.3659 31.0987 22.2178L31.099 22.217C31.4963 21.0202 32.5962 19.843 34.5418 18.7197C36.0709 17.8369 37.5505 17.6242 39.0097 18.0351C40.4718 18.4467 41.6541 19.405 42.5549 20.9652C43.0595 21.8391 43.2677 22.7414 43.192 23.6838L43.1918 23.6838L43.1912 23.6957C43.1356 24.6793 42.9012 25.9197 42.4761 27.4255L42.4741 27.4325L42.4723 27.4396C42.1466 28.7374 41.9073 29.8359 41.7563 30.7322L41.7559 30.7345C41.6099 31.6276 41.6062 32.5937 41.7379 33.629C41.8739 34.6988 42.2457 35.7512 42.8421 36.7841C43.1254 37.2749 43.4826 37.663 43.9408 37.8493ZM47.0301 44.5515C47.8133 44.7614 48.5734 44.6573 49.281 44.2487C49.967 43.8527 50.4114 43.2569 50.5932 42.4878C50.8003 41.7073 50.6955 40.9499 50.2883 40.2446C49.9036 39.5782 49.3117 39.1513 48.5498 38.9713C47.7827 38.7676 47.0495 38.8472 46.3842 39.2313C45.698 39.6275 45.236 40.2328 45.001 41.0138C44.7731 41.7664 44.846 42.4951 45.2321 43.1638C45.6407 43.8714 46.2469 44.3417 47.0301 44.5515Z" fill="#4E36A6" stroke="white"/>
<rect x="0.5" y="0.5" width="59" height="59" rx="9.5" stroke="white"/>
</g>
</svg>
