<svg width="34" height="34" viewBox="0 0 34 34" fill="none" xmlns="http://www.w3.org/2000/svg">
<path d="M32 18.3167C31.7378 21.1537 30.6731 23.8573 28.9304 26.1113C27.1877 28.3653 24.8391 30.0763 22.1595 31.0442C19.4798 32.0121 16.5799 32.1969 13.7991 31.5768C11.0183 30.9568 8.47162 29.5576 6.457 27.543C4.44239 25.5283 3.04319 22.9816 2.42314 20.2008C1.80308 17.42 1.98782 14.5201 2.95572 11.8405C3.92363 9.16085 5.63468 6.81228 7.88865 5.06959C10.1426 3.3269 12.8463 2.26218 15.6833 2C14.0223 4.24711 13.223 7.01575 13.4308 9.80236C13.6386 12.589 14.8397 15.2084 16.8156 17.1843C18.7915 19.1602 21.411 20.3613 24.1976 20.5691C26.9842 20.7769 29.7528 19.9776 32 18.3167Z" stroke="currentColor" stroke-width="4" stroke-linecap="round" stroke-linejoin="round"/>
</svg>
